<?xml version="1.0" encoding="UTF-8"?>
<svg width="22px" height="12px" viewBox="0 0 22 12" version="1.1" xmlns="http://www.w3.org/2000/svg" xmlns:xlink="http://www.w3.org/1999/xlink">
    <!-- Generator: Sketch 51.3 (57544) - http://www.bohemiancoding.com/sketch -->
    <title>Group 11 Copy 4</title>
    <desc>Created with Sketch.</desc>
    <defs></defs>
    <g id="Page-1" stroke="none" stroke-width="1" fill="none" fill-rule="evenodd">
        <g id="Group-11-Copy-4" fill="#2693FF" fill-rule="nonzero">
            <path d="M15.5,3.5 L15.5,3.5 C15.8201446,3.17985538 16.2543539,3 16.7071068,3 L17,3 C17.6128661,3 18.1731316,3.34626312 18.4472136,3.89442719 L18.7236068,4.4472136 C18.8929988,4.78599762 19.2392619,5 19.618034,5 L20.75,5 C20.9801186,5 21.1666667,5.18654802 21.1666667,5.41666667 C21.1666667,5.54781554 21.1049191,5.67131067 21,5.75 L20.7615528,5.92883539 C20.2797471,6.29018968 19.6607568,6.41518921 19.0764816,6.26912039 L18.47772,6.11943 C18.1604376,6.0401094 17.8346247,6 17.5075775,6 L16.5,6 C15.5395661,6 14.6184691,6.38153087 13.9393398,7.06066017 L11.1715729,9.82842712 C10.4214274,10.5785726 9.40401171,11 8.34314575,11 L7,11 L6.58578644,11.4142136 C6.21071368,11.7892863 5.70200585,12 5.17157288,12 L3,12 L4.41944355,10.5805565 C4.80248832,10.1975117 5.25934555,9.89626178 5.76230797,9.69507681 L10,8 L6,9 L5.85410197,9 C4.71778579,9 3.67899644,8.35799287 3.17082039,7.34164079 L3,7 L6,7 L2.96116135,6.39223227 C1.82082963,6.16416593 1,5.16291474 1,4 L5,5 L2.62639617,4.05055847 C1.15157693,3.46063077 0.392212971,1.82336109 0.894518301,0.316445096 L1,0 L3.67179882,1.78119922 C5.84195384,3.22796923 8.39179827,4 11,4 L14.2928932,4 C14.7456461,4 15.1798554,3.82014462 15.5,3.5 Z" id="Rectangle-31-Copy-12"></path>
        </g>
    </g>
</svg>